<mxfile host="app.diagrams.net" modified="2024-06-30T15:48:11.296Z" agent="Mozilla/5.0 (Windows NT 10.0; Win64; x64) AppleWebKit/537.36 (KHTML, like Gecko) Chrome/126.0.0.0 Safari/537.36" etag="Qt05lT9DohfyVMZyXFva" version="24.6.4" type="github">
  <diagram name="Page-1" id="55a83fd1-7818-8e21-69c5-c3457e3827bb">
    <mxGraphModel dx="2074" dy="1132" grid="1" gridSize="10" guides="1" tooltips="1" connect="1" arrows="1" fold="1" page="1" pageScale="1" pageWidth="1100" pageHeight="850" background="none" math="0" shadow="0">
      <root>
        <mxCell id="0" />
        <mxCell id="1" parent="0" />
        <mxCell id="69ecfefc5c41e42c-2" value="Internet" style="image;html=1;labelBackgroundColor=#ffffff;image=img/lib/clip_art/networking/Cloud_128x128.png;rounded=1;shadow=0;comic=0;strokeWidth=2;fontSize=22;labelPosition=center;verticalLabelPosition=top;align=center;verticalAlign=bottom;" parent="1" vertex="1">
          <mxGeometry x="470" y="140" width="80" height="80" as="geometry" />
        </mxCell>
        <mxCell id="69ecfefc5c41e42c-19" style="edgeStyle=none;rounded=0;html=1;labelBackgroundColor=none;endArrow=none;strokeWidth=2;fontFamily=Verdana;fontSize=22" parent="1" target="69ecfefc5c41e42c-2" edge="1">
          <mxGeometry relative="1" as="geometry">
            <mxPoint x="510" y="290" as="sourcePoint" />
          </mxGeometry>
        </mxCell>
        <mxCell id="69ecfefc5c41e42c-13" value="" style="html=1;fillColor=#CCCCCC;strokeColor=#6881B3;gradientColor=none;gradientDirection=north;strokeWidth=2;shape=mxgraph.networks.comm_link_edge;html=1;labelBackgroundColor=none;endArrow=none;fontFamily=Verdana;fontSize=22;fontColor=#000000;" parent="1" source="Iyt7lewTMl7ZF7CY6FgI-2" target="Iyt7lewTMl7ZF7CY6FgI-1" edge="1">
          <mxGeometry width="100" height="100" relative="1" as="geometry">
            <mxPoint x="274.48979591836724" y="740" as="sourcePoint" />
            <mxPoint x="375.51020408163254" y="575" as="targetPoint" />
          </mxGeometry>
        </mxCell>
        <mxCell id="69ecfefc5c41e42c-14" value="" style="html=1;fillColor=#CCCCCC;strokeColor=#6881B3;gradientColor=none;gradientDirection=north;strokeWidth=2;shape=mxgraph.networks.comm_link_edge;html=1;labelBackgroundColor=none;endArrow=none;fontFamily=Verdana;fontSize=22;fontColor=#000000;" parent="1" source="Iyt7lewTMl7ZF7CY6FgI-3" target="Iyt7lewTMl7ZF7CY6FgI-1" edge="1">
          <mxGeometry width="100" height="100" relative="1" as="geometry">
            <mxPoint x="424.89361702127667" y="730" as="sourcePoint" />
            <mxPoint x="405.10638297872333" y="575" as="targetPoint" />
          </mxGeometry>
        </mxCell>
        <mxCell id="69ecfefc5c41e42c-15" value="" style="html=1;fillColor=#CCCCCC;strokeColor=#6881B3;gradientColor=none;gradientDirection=north;strokeWidth=2;shape=mxgraph.networks.comm_link_edge;html=1;labelBackgroundColor=none;endArrow=none;fontFamily=Verdana;fontSize=22;fontColor=#000000;" parent="1" source="Iyt7lewTMl7ZF7CY6FgI-4" target="Iyt7lewTMl7ZF7CY6FgI-1" edge="1">
          <mxGeometry width="100" height="100" relative="1" as="geometry">
            <mxPoint x="620" y="708.4615384615383" as="sourcePoint" />
            <mxPoint x="440" y="566.5384615384614" as="targetPoint" />
          </mxGeometry>
        </mxCell>
        <mxCell id="69ecfefc5c41e42c-16" value="" style="html=1;fillColor=#CCCCCC;strokeColor=#6881B3;gradientColor=none;gradientDirection=north;strokeWidth=2;shape=mxgraph.networks.comm_link_edge;html=1;labelBackgroundColor=none;endArrow=none;fontFamily=Verdana;fontSize=22;fontColor=#000000;" parent="1" source="Iyt7lewTMl7ZF7CY6FgI-5" target="Iyt7lewTMl7ZF7CY6FgI-1" edge="1">
          <mxGeometry width="100" height="100" relative="1" as="geometry">
            <mxPoint x="690" y="609.6969696969697" as="sourcePoint" />
            <mxPoint x="440" y="545.3030303030303" as="targetPoint" />
          </mxGeometry>
        </mxCell>
        <mxCell id="Iyt7lewTMl7ZF7CY6FgI-1" value="" style="dashed=0;outlineConnect=0;html=1;align=center;labelPosition=center;verticalLabelPosition=bottom;verticalAlign=top;shape=mxgraph.weblogos.arduino;fillColor=#36868D;strokeColor=none" vertex="1" parent="1">
          <mxGeometry x="367" y="540" width="67.4" height="32" as="geometry" />
        </mxCell>
        <mxCell id="Iyt7lewTMl7ZF7CY6FgI-2" value="" style="verticalLabelPosition=bottom;align=center;html=1;verticalAlign=top;pointerEvents=1;dashed=0;shape=mxgraph.pid2valves.valve;valveType=ball;defState=closed" vertex="1" parent="1">
          <mxGeometry x="160" y="425" width="100" height="60" as="geometry" />
        </mxCell>
        <mxCell id="Iyt7lewTMl7ZF7CY6FgI-3" value="" style="verticalLabelPosition=bottom;align=center;html=1;verticalAlign=top;pointerEvents=1;dashed=0;shape=mxgraph.pid2valves.valve;valveType=ball;defState=closed" vertex="1" parent="1">
          <mxGeometry x="160" y="560" width="100" height="60" as="geometry" />
        </mxCell>
        <mxCell id="Iyt7lewTMl7ZF7CY6FgI-4" value="" style="verticalLabelPosition=bottom;align=center;html=1;verticalAlign=top;pointerEvents=1;dashed=0;shape=mxgraph.pid2valves.valve;valveType=ball;defState=closed" vertex="1" parent="1">
          <mxGeometry x="250" y="680" width="100" height="60" as="geometry" />
        </mxCell>
        <mxCell id="Iyt7lewTMl7ZF7CY6FgI-5" value="" style="verticalLabelPosition=bottom;align=center;html=1;verticalAlign=top;pointerEvents=1;dashed=0;shape=mxgraph.pid2valves.valve;valveType=ball;defState=closed" vertex="1" parent="1">
          <mxGeometry x="410" y="680" width="100" height="60" as="geometry" />
        </mxCell>
        <mxCell id="Iyt7lewTMl7ZF7CY6FgI-6" value="" style="dashed=0;outlineConnect=0;html=1;align=center;labelPosition=center;verticalLabelPosition=bottom;verticalAlign=top;shape=mxgraph.weblogos.arduino;fillColor=#36868D;strokeColor=none" vertex="1" parent="1">
          <mxGeometry x="477" y="320" width="67.4" height="32" as="geometry" />
        </mxCell>
        <mxCell id="Iyt7lewTMl7ZF7CY6FgI-7" value="" style="dashed=0;outlineConnect=0;html=1;align=center;labelPosition=center;verticalLabelPosition=bottom;verticalAlign=top;shape=mxgraph.weblogos.app_store_iphone;fillColor=#75797C;strokeColor=none" vertex="1" parent="1">
          <mxGeometry x="590" y="220" width="61.2" height="20" as="geometry" />
        </mxCell>
        <mxCell id="Iyt7lewTMl7ZF7CY6FgI-8" value="" style="html=1;fillColor=#CCCCCC;strokeColor=#6881B3;gradientColor=none;gradientDirection=north;strokeWidth=2;shape=mxgraph.networks.comm_link_edge;html=1;labelBackgroundColor=none;endArrow=none;fontFamily=Verdana;fontSize=22;fontColor=#000000;" edge="1" parent="1" source="Iyt7lewTMl7ZF7CY6FgI-7" target="Iyt7lewTMl7ZF7CY6FgI-6">
          <mxGeometry width="100" height="100" relative="1" as="geometry">
            <mxPoint x="680" y="320" as="sourcePoint" />
            <mxPoint x="430" y="255.6060606060605" as="targetPoint" />
          </mxGeometry>
        </mxCell>
        <mxCell id="Iyt7lewTMl7ZF7CY6FgI-9" value="" style="shape=image;html=1;verticalAlign=top;verticalLabelPosition=bottom;labelBackgroundColor=#ffffff;imageAspect=0;aspect=fixed;image=https://cdn2.iconfinder.com/data/icons/weather-color-2/500/weather-32-128.png" vertex="1" parent="1">
          <mxGeometry x="300" y="166" width="104" height="104" as="geometry" />
        </mxCell>
        <mxCell id="Iyt7lewTMl7ZF7CY6FgI-10" value="" style="html=1;fillColor=#CCCCCC;strokeColor=#6881B3;gradientColor=none;gradientDirection=north;strokeWidth=2;shape=mxgraph.networks.comm_link_edge;html=1;labelBackgroundColor=none;endArrow=none;fontFamily=Verdana;fontSize=22;fontColor=#000000;" edge="1" parent="1" source="Iyt7lewTMl7ZF7CY6FgI-9" target="Iyt7lewTMl7ZF7CY6FgI-6">
          <mxGeometry width="100" height="100" relative="1" as="geometry">
            <mxPoint x="350" y="330" as="sourcePoint" />
            <mxPoint x="267" y="410" as="targetPoint" />
          </mxGeometry>
        </mxCell>
        <mxCell id="Iyt7lewTMl7ZF7CY6FgI-11" value="" style="dashed=0;outlineConnect=0;html=1;align=center;labelPosition=center;verticalLabelPosition=bottom;verticalAlign=top;shape=mxgraph.weblogos.arduino;fillColor=#36868D;strokeColor=none" vertex="1" parent="1">
          <mxGeometry x="587" y="490" width="67.4" height="32" as="geometry" />
        </mxCell>
        <mxCell id="Iyt7lewTMl7ZF7CY6FgI-12" value="" style="html=1;fillColor=#CCCCCC;strokeColor=#6881B3;gradientColor=none;gradientDirection=north;strokeWidth=2;shape=mxgraph.networks.comm_link_edge;html=1;labelBackgroundColor=none;endArrow=none;fontFamily=Verdana;fontSize=22;fontColor=#000000;" edge="1" parent="1" source="Iyt7lewTMl7ZF7CY6FgI-20" target="Iyt7lewTMl7ZF7CY6FgI-11">
          <mxGeometry width="100" height="100" relative="1" as="geometry">
            <mxPoint x="810" y="640" as="sourcePoint" />
            <mxPoint x="624" y="390" as="targetPoint" />
          </mxGeometry>
        </mxCell>
        <mxCell id="Iyt7lewTMl7ZF7CY6FgI-14" value="" style="html=1;fillColor=#CCCCCC;strokeColor=#6881B3;gradientColor=none;gradientDirection=north;strokeWidth=2;shape=mxgraph.networks.comm_link_edge;html=1;labelBackgroundColor=none;endArrow=none;fontFamily=Verdana;fontSize=22;fontColor=#000000;" edge="1" parent="1" source="Iyt7lewTMl7ZF7CY6FgI-19" target="Iyt7lewTMl7ZF7CY6FgI-11">
          <mxGeometry width="100" height="100" relative="1" as="geometry">
            <mxPoint x="890" y="520" as="sourcePoint" />
            <mxPoint x="720" y="340" as="targetPoint" />
          </mxGeometry>
        </mxCell>
        <mxCell id="Iyt7lewTMl7ZF7CY6FgI-15" value="" style="html=1;fillColor=#CCCCCC;strokeColor=#6881B3;gradientColor=none;gradientDirection=north;strokeWidth=2;shape=mxgraph.networks.comm_link_edge;html=1;labelBackgroundColor=none;endArrow=none;fontFamily=Verdana;fontSize=22;fontColor=#000000;" edge="1" parent="1" source="Iyt7lewTMl7ZF7CY6FgI-18" target="Iyt7lewTMl7ZF7CY6FgI-11">
          <mxGeometry width="100" height="100" relative="1" as="geometry">
            <mxPoint x="870" y="384.68" as="sourcePoint" />
            <mxPoint x="654.4000000000001" y="484.99929402326524" as="targetPoint" />
          </mxGeometry>
        </mxCell>
        <mxCell id="Iyt7lewTMl7ZF7CY6FgI-16" value="" style="html=1;fillColor=#CCCCCC;strokeColor=#6881B3;gradientColor=none;gradientDirection=north;strokeWidth=2;shape=mxgraph.networks.comm_link_edge;html=1;labelBackgroundColor=none;endArrow=none;fontFamily=Verdana;fontSize=22;fontColor=#000000;" edge="1" parent="1" source="Iyt7lewTMl7ZF7CY6FgI-21" target="Iyt7lewTMl7ZF7CY6FgI-11">
          <mxGeometry width="100" height="100" relative="1" as="geometry">
            <mxPoint x="680" y="700" as="sourcePoint" />
            <mxPoint x="830" y="452" as="targetPoint" />
          </mxGeometry>
        </mxCell>
        <mxCell id="Iyt7lewTMl7ZF7CY6FgI-17" value="" style="sketch=0;outlineConnect=0;fontColor=#232F3E;gradientColor=none;fillColor=#7AA116;strokeColor=none;dashed=0;verticalLabelPosition=bottom;verticalAlign=top;align=center;html=1;fontSize=12;fontStyle=0;aspect=fixed;pointerEvents=1;shape=mxgraph.aws4.iot_thing_temperature_humidity_sensor;" vertex="1" parent="1">
          <mxGeometry x="870" y="352" width="78" height="78" as="geometry" />
        </mxCell>
        <mxCell id="Iyt7lewTMl7ZF7CY6FgI-18" value="" style="sketch=0;outlineConnect=0;fontColor=#232F3E;gradientColor=none;fillColor=#7AA116;strokeColor=none;dashed=0;verticalLabelPosition=bottom;verticalAlign=top;align=center;html=1;fontSize=12;fontStyle=0;aspect=fixed;pointerEvents=1;shape=mxgraph.aws4.iot_thing_temperature_humidity_sensor;" vertex="1" parent="1">
          <mxGeometry x="870" y="352" width="78" height="78" as="geometry" />
        </mxCell>
        <mxCell id="Iyt7lewTMl7ZF7CY6FgI-19" value="" style="sketch=0;outlineConnect=0;fontColor=#232F3E;gradientColor=none;fillColor=#7AA116;strokeColor=none;dashed=0;verticalLabelPosition=bottom;verticalAlign=top;align=center;html=1;fontSize=12;fontStyle=0;aspect=fixed;pointerEvents=1;shape=mxgraph.aws4.iot_thing_temperature_humidity_sensor;" vertex="1" parent="1">
          <mxGeometry x="880" y="482" width="78" height="78" as="geometry" />
        </mxCell>
        <mxCell id="Iyt7lewTMl7ZF7CY6FgI-20" value="" style="sketch=0;outlineConnect=0;fontColor=#232F3E;gradientColor=none;fillColor=#7AA116;strokeColor=none;dashed=0;verticalLabelPosition=bottom;verticalAlign=top;align=center;html=1;fontSize=12;fontStyle=0;aspect=fixed;pointerEvents=1;shape=mxgraph.aws4.iot_thing_temperature_humidity_sensor;" vertex="1" parent="1">
          <mxGeometry x="802" y="602" width="78" height="78" as="geometry" />
        </mxCell>
        <mxCell id="Iyt7lewTMl7ZF7CY6FgI-21" value="" style="sketch=0;outlineConnect=0;fontColor=#232F3E;gradientColor=none;fillColor=#7AA116;strokeColor=none;dashed=0;verticalLabelPosition=bottom;verticalAlign=top;align=center;html=1;fontSize=12;fontStyle=0;aspect=fixed;pointerEvents=1;shape=mxgraph.aws4.iot_thing_temperature_humidity_sensor;" vertex="1" parent="1">
          <mxGeometry x="640" y="690" width="78" height="78" as="geometry" />
        </mxCell>
        <mxCell id="Iyt7lewTMl7ZF7CY6FgI-22" value="" style="html=1;fillColor=#CCCCCC;strokeColor=#6881B3;gradientColor=none;gradientDirection=north;strokeWidth=2;shape=mxgraph.networks.comm_link_edge;html=1;labelBackgroundColor=none;endArrow=none;fontFamily=Verdana;fontSize=22;fontColor=#000000;" edge="1" parent="1">
          <mxGeometry width="100" height="100" relative="1" as="geometry">
            <mxPoint x="870" y="407" as="sourcePoint" />
            <mxPoint x="654" y="493" as="targetPoint" />
          </mxGeometry>
        </mxCell>
        <mxCell id="Iyt7lewTMl7ZF7CY6FgI-23" value="" style="html=1;fillColor=#CCCCCC;strokeColor=#6881B3;gradientColor=none;gradientDirection=north;strokeWidth=2;shape=mxgraph.networks.comm_link_edge;html=1;labelBackgroundColor=none;endArrow=none;fontFamily=Verdana;fontSize=22;fontColor=#000000;" edge="1" parent="1" source="Iyt7lewTMl7ZF7CY6FgI-6" target="Iyt7lewTMl7ZF7CY6FgI-1">
          <mxGeometry width="100" height="100" relative="1" as="geometry">
            <mxPoint x="636" y="412" as="sourcePoint" />
            <mxPoint x="420" y="498" as="targetPoint" />
          </mxGeometry>
        </mxCell>
        <mxCell id="Iyt7lewTMl7ZF7CY6FgI-24" value="" style="html=1;fillColor=#CCCCCC;strokeColor=#6881B3;gradientColor=none;gradientDirection=north;strokeWidth=2;shape=mxgraph.networks.comm_link_edge;html=1;labelBackgroundColor=none;endArrow=none;fontFamily=Verdana;fontSize=22;fontColor=#000000;" edge="1" parent="1" source="Iyt7lewTMl7ZF7CY6FgI-6" target="Iyt7lewTMl7ZF7CY6FgI-11">
          <mxGeometry width="100" height="100" relative="1" as="geometry">
            <mxPoint x="693" y="370" as="sourcePoint" />
            <mxPoint x="477" y="456" as="targetPoint" />
          </mxGeometry>
        </mxCell>
      </root>
    </mxGraphModel>
  </diagram>
</mxfile>
